<?xml version="1.0" encoding="UTF-8"?>
<!DOCTYPE svg PUBLIC "-//W3C//DTD SVG 1.1//EN" "http://www.w3.org/Graphics/SVG/1.1/DTD/svg11.dtd">
<svg xmlns="http://www.w3.org/2000/svg" version="1.1" width="2870px" height="2126px" style="shape-rendering:geometricPrecision; text-rendering:geometricPrecision; image-rendering:optimizeQuality; fill-rule:evenodd; clip-rule:evenodd" xmlns:xlink="http://www.w3.org/1999/xlink">
<g><path style="opacity:0.741" fill="#fe9ac3" d="M 2651.5,-0.5 C 2666.83,-0.5 2682.17,-0.5 2697.5,-0.5C 2735.1,3.38519 2766.6,19.3852 2792,47.5C 2802.9,63.0722 2814.57,78.0722 2827,92.5C 2840.92,111.658 2852.25,132.325 2861,154.5C 2864.81,166.407 2867.65,178.407 2869.5,190.5C 2869.5,202.5 2869.5,214.5 2869.5,226.5C 2862.35,292.327 2829.68,340.827 2771.5,372C 2735.96,389.971 2698.29,400.638 2658.5,404C 2582.42,409.559 2507.42,402.892 2433.5,384C 2396.64,372.935 2359.97,361.268 2323.5,349C 2289.81,341.181 2255.81,339.514 2221.5,344C 2153.46,353.474 2086.46,367.807 2020.5,387C 2016.84,387.829 2013.51,389.329 2010.5,391.5C 2011.33,393.167 2012.17,394.833 2013,396.5C 2034.73,418.912 2058.23,439.079 2083.5,457C 2134.67,487.082 2185.67,517.415 2236.5,548C 2288.73,580.264 2335.9,619.097 2378,664.5C 2406.71,695.559 2428.04,731.226 2442,771.5C 2444.42,779.683 2446.09,788.016 2447,796.5C 2450.8,836.932 2453.64,877.432 2455.5,918C 2454.93,971.794 2446.43,1024.29 2430,1075.5C 2426.26,1087.07 2421.92,1098.4 2417,1109.5C 2416.33,1178.5 2416.33,1247.5 2417,1316.5C 2418.95,1344.94 2433.78,1362.11 2461.5,1368C 2467.49,1368.5 2473.49,1368.67 2479.5,1368.5C 2479.5,1373.17 2479.5,1377.83 2479.5,1382.5C 2424.17,1382.5 2368.83,1382.5 2313.5,1382.5C 2313.67,1341.5 2313.5,1300.5 2313,1259.5C 2300.43,1270.68 2289.76,1283.35 2281,1297.5C 2265.55,1315.45 2248.05,1330.95 2228.5,1344C 2169.24,1399.09 2107.58,1451.09 2043.5,1500C 2000.73,1532.11 1957.39,1563.44 1913.5,1594C 1911.11,1596.05 1909.11,1598.38 1907.5,1601C 1913.86,1612.69 1921.03,1623.86 1929,1634.5C 1948.03,1658.86 1969.19,1681.36 1992.5,1702C 2020.5,1724.32 2047,1748.49 2072,1774.5C 2085.48,1789.64 2097.81,1805.64 2109,1822.5C 2116.25,1834.85 2120.09,1848.18 2120.5,1862.5C 2118.07,1876.5 2115.57,1890.5 2113,1904.5C 2104.51,1974.79 2120.85,2038.46 2162,2095.5C 2167.33,2102.17 2172.67,2108.83 2178,2115.5C 2179.43,2120.22 2177.93,2123.55 2173.5,2125.5C 2171.83,2125.5 2170.17,2125.5 2168.5,2125.5C 2074.4,2066.63 1987.9,1997.63 1909,1918.5C 1891.26,1900.1 1874.26,1881.1 1858,1861.5C 1826.87,1823.71 1810.7,1780.21 1809.5,1731C 1815.47,1650.81 1832.3,1572.98 1860,1497.5C 1862.23,1452.46 1876.57,1411.8 1903,1375.5C 1907.83,1369.33 1912.67,1363.17 1917.5,1357C 1871.38,1323.94 1848.05,1278.77 1847.5,1221.5C 1848.68,1166.63 1871.35,1123.13 1915.5,1091C 1948.91,1068.46 1985.25,1052.13 2024.5,1042C 2080.95,1027.55 2138.28,1018.89 2196.5,1016C 2235.48,1014.03 2274.48,1012.87 2313.5,1012.5C 2316.39,958.253 2307.89,905.919 2288,855.5C 2272.55,818.416 2248.05,788.916 2214.5,767C 2162.33,737.422 2112.99,741.422 2066.5,779C 2038.81,804.528 2017.64,834.694 2003,869.5C 1983.62,914.696 1970.62,961.696 1964,1010.5C 1959.48,1012.41 1954.65,1013.07 1949.5,1012.5C 1935.48,963.095 1921.15,913.762 1906.5,864.5C 1940.25,813.267 1985.92,776.767 2043.5,755C 2103.06,733.649 2164.06,727.983 2226.5,738C 2214.08,731.454 2201.41,725.454 2188.5,720C 2142.61,703.923 2097.94,684.923 2054.5,663C 1997.96,632.815 1946.46,595.648 1900,551.5C 1863.75,512.37 1836.08,467.704 1817,417.5C 1813.97,413.817 1810.81,413.65 1807.5,417C 1801.21,426.294 1792.88,432.96 1782.5,437C 1771.72,439.843 1761.72,438.176 1752.5,432C 1738.13,419.291 1723.46,406.957 1708.5,395C 1706.5,394.5 1704.5,394 1702.5,393.5C 1687.53,394.635 1672.53,394.802 1657.5,394C 1653.95,393.371 1650.45,392.538 1647,391.5C 1645.77,391.645 1644.61,391.978 1643.5,392.5C 1613.35,478.982 1562.01,550.148 1489.5,606C 1410.76,663.22 1325.76,709.887 1234.5,746C 1241.49,746.5 1248.49,746.666 1255.5,746.5C 1255.33,938.167 1255.5,1129.83 1256,1321.5C 1259.96,1344.79 1273.13,1359.96 1295.5,1367C 1303.44,1368.32 1311.44,1368.82 1319.5,1368.5C 1319.5,1373.17 1319.5,1377.83 1319.5,1382.5C 1264.17,1382.5 1208.83,1382.5 1153.5,1382.5C 1153.67,1330.17 1153.5,1277.83 1153,1225.5C 1120,1312.44 1058.16,1366.61 967.5,1388C 919.319,1398.59 871.319,1397.92 823.5,1386C 764.393,1367.89 723.56,1330.06 701,1272.5C 691.89,1247.95 686.223,1222.62 684,1196.5C 683.016,1065.15 682.016,933.812 681,802.5C 676.353,781.187 663.52,767.687 642.5,762C 634.584,760.344 626.584,759.51 618.5,759.5C 618.5,755.167 618.5,750.833 618.5,746.5C 674.167,746.5 729.833,746.5 785.5,746.5C 785.333,888.5 785.5,1030.5 786,1172.5C 786.788,1214.19 798.788,1252.19 822,1286.5C 849.053,1319.28 883.887,1337.78 926.5,1342C 982.882,1348.49 1033.88,1335.16 1079.5,1302C 1125.42,1262.66 1149.92,1212.49 1153,1151.5C 1153.67,1037.17 1153.67,922.833 1153,808.5C 1152.19,800.556 1149.69,793.223 1145.5,786.5C 1097.04,810.553 1050.37,837.387 1005.5,867C 998.068,871.799 990.902,876.966 984,882.5C 997.524,934.879 1020.19,982.879 1052,1026.5C 1067.48,1047.09 1084.15,1066.76 1102,1085.5C 1103.84,1087.85 1105.01,1090.51 1105.5,1093.5C 1098.39,1113.13 1087.05,1129.96 1071.5,1144C 1054.19,1156.99 1036.19,1168.99 1017.5,1180C 993.364,1199.43 974.864,1223.26 962,1251.5C 954.711,1258.56 948.044,1257.89 942,1249.5C 918.499,1211.83 894.499,1174.49 870,1137.5C 842.356,1095.32 836.189,1050.15 851.5,1002C 875.577,925.357 909.41,853.523 953,786.5C 971.422,737.962 996.755,693.629 1029,653.5C 1054.89,627.981 1083.72,606.481 1115.5,589C 1131.71,580.728 1148.04,572.728 1164.5,565C 1222.09,539.691 1280.09,515.358 1338.5,492C 1382.47,473.012 1425.8,452.678 1468.5,431C 1505.49,410.172 1542.16,388.838 1578.5,367C 1582.78,364.385 1586.78,361.385 1590.5,358C 1588.75,357.529 1587.09,356.862 1585.5,356C 1572.84,355.207 1560.17,354.54 1547.5,354C 1541.79,353.258 1536.12,352.258 1530.5,351C 1511.64,345.239 1492.98,338.905 1474.5,332C 1461.8,327.791 1448.8,325.791 1435.5,326C 1390.22,339.736 1344.56,352.07 1298.5,363C 1222.01,403.164 1142.34,435.497 1059.5,460C 1026.6,468.304 993.604,468.637 960.5,461C 900.581,452.455 849.081,427.288 806,385.5C 761.792,337.621 751.126,282.955 774,221.5C 792.804,177.697 822.637,143.53 863.5,119C 875.426,111.87 887.76,105.537 900.5,100C 940.335,94.4483 979.668,97.115 1018.5,108C 1044.73,114.522 1070.73,121.855 1096.5,130C 1192.71,148.838 1289.71,161.838 1387.5,169C 1455.75,178.083 1522.08,194.75 1586.5,219C 1621.46,232.305 1653.8,249.972 1683.5,272C 1686.56,272.458 1689.56,272.124 1692.5,271C 1714.19,261.75 1736.19,261.083 1758.5,269C 1780.91,276.708 1799.25,290.042 1813.5,309C 1815.14,309.601 1816.8,310.101 1818.5,310.5C 1837.08,306.855 1855.08,301.355 1872.5,294C 1921.85,271.104 1970.85,247.437 2019.5,223C 2079.33,191.588 2138.99,159.921 2198.5,128C 2305.12,80.2362 2415.46,43.2362 2529.5,17C 2570.03,9.07458 2610.7,3.24124 2651.5,-0.5 Z M 2666.5,9.5 C 2716.21,6.11843 2756.38,23.7851 2787,62.5C 2790.87,67.7057 2793.87,73.3724 2796,79.5C 2795.72,91.8655 2794.72,104.199 2793,116.5C 2792.91,120.713 2790.91,123.379 2787,124.5C 2759.53,118.504 2731.7,115.838 2703.5,116.5C 2674.89,115.972 2646.56,118.472 2618.5,124C 2513.51,145.999 2412.17,178.999 2314.5,223C 2310.44,224.546 2306.27,225.712 2302,226.5C 2284.39,222.093 2266.56,218.926 2248.5,217C 2220.02,214.584 2191.52,212.418 2163,210.5C 2142.47,211.149 2121.97,212.316 2101.5,214C 2082.68,216.833 2064.01,220.166 2045.5,224C 2099.35,193.904 2153.69,164.57 2208.5,136C 2306.3,92.5113 2407.3,58.178 2511.5,33C 2538.04,27.0317 2564.71,21.6984 2591.5,17C 2616.61,14.1042 2641.61,11.6042 2666.5,9.5 Z M 2811.5,99.5 C 2813.72,99.178 2815.56,99.8446 2817,101.5C 2858.73,155.611 2867.06,214.611 2842,278.5C 2823.23,319.933 2792.73,349.1 2750.5,366C 2687.96,388.355 2623.63,396.021 2557.5,389C 2515.7,387.201 2474.7,380.534 2434.5,369C 2399.76,357.196 2364.76,346.196 2329.5,336C 2291.16,326.952 2252.5,325.286 2213.5,331C 2177.78,335.611 2142.44,342.278 2107.5,351C 2070.45,360.512 2033.45,370.179 1996.5,380C 1953.83,386.072 1912.17,382.072 1871.5,368C 1858.39,354.887 1845.22,341.721 1832,328.5C 1831.21,326.413 1830.04,324.579 1828.5,323C 1848.97,317.169 1869.64,311.835 1890.5,307C 1935.16,293.332 1978.5,276.332 2020.5,256C 2070.98,236.169 2123.31,228.169 2177.5,232C 2213.15,232.726 2248.48,236.392 2283.5,243C 2371.7,268.672 2461.7,283.506 2553.5,287.5C 2613.98,286.798 2670.32,271.298 2722.5,241C 2774.57,208.045 2804.24,160.878 2811.5,99.5 Z M 921.5,111.5 C 944.106,110.182 966.44,112.015 988.5,117C 1043.04,127.382 1095.38,144.382 1145.5,168C 1171.15,180.824 1196.48,194.157 1221.5,208C 1295.9,246.247 1373.24,277.247 1453.5,301C 1455.12,301.615 1456.45,302.615 1457.5,304C 1452.78,307.113 1447.61,308.947 1442,309.5C 1424.84,306.184 1407.51,304.518 1390,304.5C 1381.08,305.042 1372.25,306.208 1363.5,308C 1315.83,323 1268.17,338 1220.5,353C 1209.21,356.53 1197.71,359.03 1186,360.5C 1140.71,357.757 1096.54,349.257 1053.5,335C 1010.61,322.551 969.274,306.218 929.5,286C 907.77,274.546 888.27,260.046 871,242.5C 842.122,209.351 841.122,175.351 868,140.5C 882.436,124.369 900.269,114.702 921.5,111.5 Z M 2681.5,126.5 C 2696.17,126.333 2710.84,126.5 2725.5,127C 2745.26,128.8 2764.93,131.3 2784.5,134.5C 2785.99,138.561 2785.82,142.561 2784,146.5C 2766.05,184.448 2738.55,213.281 2701.5,233C 2646.53,261.328 2588.2,272.994 2526.5,268C 2486.3,264.142 2446.3,258.809 2406.5,252C 2380.8,246.158 2355.13,240.158 2329.5,234C 2328.17,232.333 2328.17,230.667 2329.5,229C 2417.93,190.127 2509.27,159.794 2603.5,138C 2629.44,132.7 2655.44,128.867 2681.5,126.5 Z M 1158.5,155.5 C 1183.23,158.789 1207.9,162.622 1232.5,167C 1293.23,174.175 1353.9,181.841 1414.5,190C 1473.82,200.579 1531.49,216.912 1587.5,239C 1612.37,249.096 1635.7,261.763 1657.5,277C 1659.17,278.667 1660.83,280.333 1662.5,282C 1661,283.115 1659.33,283.948 1657.5,284.5C 1602.49,279.462 1548.16,283.629 1494.5,297C 1489.1,297.772 1483.76,297.439 1478.5,296C 1396.02,272.925 1317.02,241.259 1241.5,201C 1215.61,186.553 1189.27,172.886 1162.5,160C 1160.81,158.693 1159.47,157.193 1158.5,155.5 Z M 832.5,159.5 C 833.147,160.274 833.48,161.274 833.5,162.5C 825.762,187.214 828.262,210.881 841,233.5C 854.925,254.759 872.759,271.926 894.5,285C 921.711,302.772 950.711,317.105 981.5,328C 1013.04,339.737 1045.04,350.071 1077.5,359C 1132.7,372.7 1188.7,378.2 1245.5,375.5C 1212.32,392.173 1178.32,407.006 1143.5,420C 1116.44,429.132 1089.44,438.466 1062.5,448C 980.639,463.2 905.973,446.533 838.5,398C 772.416,343.92 758.916,278.753 798,202.5C 806.797,185.883 818.297,171.55 832.5,159.5 Z M 1704.5,282.5 C 1726.72,280.189 1746.72,285.689 1764.5,299C 1770.3,303.8 1775.8,308.967 1781,314.5C 1785.76,321.262 1791.26,327.429 1797.5,333C 1816.64,350.468 1835.47,368.301 1854,386.5C 1855.17,388.333 1856.33,390.167 1857.5,392C 1854.12,395.356 1850.12,397.69 1845.5,399C 1830.87,401.44 1816.2,403.44 1801.5,405C 1796.59,410.916 1791.26,416.583 1785.5,422C 1778.95,427.185 1771.95,428.185 1764.5,425C 1749.47,414.971 1735.97,403.138 1724,389.5C 1722.45,387.232 1721.61,384.732 1721.5,382C 1723.75,372.521 1723.92,363.021 1722,353.5C 1718.72,344.859 1715.38,336.193 1712,327.5C 1711.98,314.132 1707.98,302.132 1700,291.5C 1698.92,288.937 1698.42,286.271 1698.5,283.5C 1700.74,283.795 1702.74,283.461 1704.5,282.5 Z M 1573.5,295.5 C 1606.83,295.333 1640.17,295.5 1673.5,296C 1682.31,299.491 1687.48,305.991 1689,315.5C 1690.47,320.735 1688.97,324.901 1684.5,328C 1680.32,329.796 1675.98,331.129 1671.5,332C 1631.98,337.057 1592.32,339.057 1552.5,338C 1546.09,337.517 1539.75,336.517 1533.5,335C 1515.3,329.265 1497.3,322.932 1479.5,316C 1492.85,311.246 1506.52,307.579 1520.5,305C 1538.23,301.38 1555.9,298.213 1573.5,295.5 Z M 1381.5,319.5 C 1385.18,319.335 1388.85,319.501 1392.5,320C 1392.96,320.414 1393.29,320.914 1393.5,321.5C 1392.5,322.333 1391.5,323.167 1390.5,324C 1354.79,333.177 1319.12,342.511 1283.5,352C 1280.45,352.821 1277.45,352.655 1274.5,351.5C 1301.15,341.784 1328.15,332.951 1355.5,325C 1364.15,322.398 1372.81,320.565 1381.5,319.5 Z M 1698.5,340.5 C 1700.39,340.297 1701.89,340.963 1703,342.5C 1709.82,353.872 1711.48,365.872 1708,378.5C 1706.79,380.049 1705.29,381.215 1703.5,382C 1687.15,385.184 1670.81,385.184 1654.5,382C 1643.38,379.193 1633.88,373.693 1626,365.5C 1623.79,362.15 1623.29,358.65 1624.5,355C 1641.76,352.14 1659.1,349.807 1676.5,348C 1684.36,346.711 1691.69,344.211 1698.5,340.5 Z M 1606.5,363.5 C 1607.24,363.369 1607.91,363.536 1608.5,364C 1614.55,370.596 1620.72,377.096 1627,383.5C 1628.46,386.366 1628.79,389.366 1628,392.5C 1602.53,466.946 1560.03,529.779 1500.5,581C 1474.23,602.936 1446.56,622.936 1417.5,641C 1377.24,665.968 1335.57,688.635 1292.5,709C 1263.38,721.058 1234.38,733.391 1205.5,746C 1166.83,746.5 1128.17,746.667 1089.5,746.5C 1089.5,750.833 1089.5,755.167 1089.5,759.5C 1108.2,758.345 1124.54,763.845 1138.5,776C 1112.18,789.491 1086.18,803.491 1060.5,818C 1034.47,835.013 1008.14,851.513 981.5,867.5C 978.983,865.49 977.483,862.823 977,859.5C 970.764,835.477 968.431,811.143 970,786.5C 990.542,743.983 1015.87,704.649 1046,668.5C 1067.22,647.273 1090.72,629.106 1116.5,614C 1134.85,603.823 1153.52,594.156 1172.5,585C 1233,558.61 1293.67,532.61 1354.5,507C 1444.09,468.064 1528.09,420.23 1606.5,363.5 Z M 1883.5,385.5 C 1895.94,386.858 1908.28,389.025 1920.5,392C 1939.62,394.563 1958.78,395.063 1978,393.5C 1984.93,393.858 1991.43,395.691 1997.5,399C 2021.72,424.226 2048.05,446.893 2076.5,467C 2120.34,493.757 2164.67,519.757 2209.5,545C 2266.55,578.49 2318.05,619.324 2364,667.5C 2386.64,692.747 2405.3,720.747 2420,751.5C 2431.7,781.353 2437.7,812.353 2438,844.5C 2439.02,870.854 2440.18,897.187 2441.5,923.5C 2440.61,933.819 2439.78,944.152 2439,954.5C 2438.69,955.308 2438.19,955.975 2437.5,956.5C 2419.83,885.623 2382.83,827.123 2326.5,781C 2300.15,759.326 2272.15,739.992 2242.5,723C 2228.29,716.06 2213.95,709.393 2199.5,703C 2167.68,691.059 2136.01,678.725 2104.5,666C 2039.06,635.31 1979.06,596.643 1924.5,550C 1889.04,515.875 1860.54,476.709 1839,432.5C 1836.93,428.358 1835.43,424.025 1834.5,419.5C 1834.57,418.228 1834.9,417.062 1835.5,416C 1843.84,415.066 1852.18,414.066 1860.5,413C 1868.79,411.941 1874.96,407.774 1879,400.5C 1880.66,395.511 1882.16,390.511 1883.5,385.5 Z M 951.5,816.5 C 953.984,818.12 955.484,820.453 956,823.5C 965.997,925.584 1005,1014.58 1073,1090.5C 1076.25,1095.97 1075.92,1101.3 1072,1106.5C 1065.69,1117.49 1057.85,1127.32 1048.5,1136C 1033.01,1147.58 1017.34,1158.91 1001.5,1170C 990.178,1179.98 980.345,1191.15 972,1203.5C 965.586,1215.33 958.92,1227 952,1238.5C 949.333,1235.17 946.667,1231.83 944,1228.5C 921.084,1190.33 897.417,1152.66 873,1115.5C 859.153,1089.42 854.486,1061.75 859,1032.5C 877.907,955.242 908.741,883.242 951.5,816.5 Z M 2415.5,960.5 C 2416.5,960.414 2417.33,960.748 2418,961.5C 2424.51,991.889 2426.17,1022.56 2423,1053.5C 2421.61,1060.67 2419.61,1067.67 2417,1074.5C 2416.67,1044.17 2416.33,1013.83 2416,983.5C 2415.06,975.76 2414.89,968.093 2415.5,960.5 Z M 2270.5,1026.5 C 2284.83,1026.5 2299.17,1026.5 2313.5,1026.5C 2313.67,1031.51 2313.5,1036.51 2313,1041.5C 2283.7,1067.14 2253.54,1091.64 2222.5,1115C 2137.55,1167.61 2057.38,1226.77 1982,1292.5C 1953.86,1252.91 1944.86,1209.24 1955,1161.5C 1964.82,1125.02 1985.99,1097.18 2018.5,1078C 2047.22,1061.42 2077.88,1049.76 2110.5,1043C 2163.48,1032.66 2216.81,1027.16 2270.5,1026.5 Z M 2312.5,1057.5 C 2313.66,1100.33 2313.83,1143.33 2313,1186.5C 2310.19,1218.27 2299.86,1247.27 2282,1273.5C 2266.83,1288.67 2251.67,1303.83 2236.5,1319C 2186.44,1352.74 2131.78,1363.41 2072.5,1351C 2040.51,1343.26 2013.34,1327.43 1991,1303.5C 1990.33,1302.83 1990.33,1302.17 1991,1301.5C 2016.62,1278.2 2043.12,1256.04 2070.5,1235C 2129.11,1191.69 2189.11,1150.36 2250.5,1111C 2271.42,1093.39 2292.09,1075.55 2312.5,1057.5 Z M 1927.5,1364.5 C 1977.37,1390.48 2030.37,1400.31 2086.5,1394C 2119.03,1390.7 2150.37,1383.03 2180.5,1371C 2091.62,1448.9 1998.45,1521.07 1901,1587.5C 1864.46,1523.09 1865.79,1459.42 1905,1396.5C 1912.36,1385.66 1919.86,1374.99 1927.5,1364.5 Z M 1863.5,1535.5 C 1864.5,1535.47 1865.16,1535.97 1865.5,1537C 1876.87,1577.58 1895.7,1614.08 1922,1646.5C 1936.76,1663.93 1952.26,1680.77 1968.5,1697C 1999.2,1722.36 2028.7,1749.19 2057,1777.5C 2072.79,1795.09 2087.12,1813.75 2100,1833.5C 2104.14,1842.55 2106.3,1852.05 2106.5,1862C 2102.56,1883.71 2099.39,1905.54 2097,1927.5C 2095.06,1985.56 2109.56,2039.06 2140.5,2088C 2139.97,2088.69 2139.31,2089.19 2138.5,2089.5C 2055.65,2032.89 1979.48,1967.89 1910,1894.5C 1889.43,1872.27 1870.76,1848.6 1854,1823.5C 1837.38,1795.29 1828.21,1764.79 1826.5,1732C 1832.11,1665.19 1844.44,1599.69 1863.5,1535.5 Z"/></g>
<g><path style="opacity:0.985" fill="#fe9ac3" d="M -0.5,1234.5 C -0.5,1225.83 -0.5,1217.17 -0.5,1208.5C 4.63121,1157.07 28.6312,1116.91 71.5,1088C 108.467,1064.34 148.467,1047.67 191.5,1038C 249.1,1024.84 307.433,1017.17 366.5,1015C 399.49,1013.76 432.49,1012.93 465.5,1012.5C 467.669,963.184 460.836,915.184 445,868.5C 430.309,827.24 405.143,794.074 369.5,769C 312.186,735.265 259.186,740.932 210.5,786C 180.249,818.639 157.749,856.139 143,898.5C 130.059,935.596 120.893,973.596 115.5,1012.5C 110.352,1013.07 105.518,1012.41 101,1010.5C 86.7321,961.863 72.5654,913.196 58.5,864.5C 69.0445,847.106 81.7112,831.272 96.5,817C 159.2,760.603 233.034,732.77 318,733.5C 359.116,732.657 398.616,740.157 436.5,756C 493.894,783.404 532.06,827.571 551,888.5C 561.047,920.736 566.714,953.736 568,987.5C 568.333,1098.17 568.667,1208.83 569,1319.5C 571.932,1346.1 586.432,1362.26 612.5,1368C 618.825,1368.5 625.158,1368.67 631.5,1368.5C 631.5,1373.17 631.5,1377.83 631.5,1382.5C 576.167,1382.5 520.833,1382.5 465.5,1382.5C 465.667,1336.17 465.5,1289.83 465,1243.5C 451.2,1276.27 430.7,1304.1 403.5,1327C 346.256,1372.64 280.756,1395.47 207,1395.5C 159.464,1396.58 115.297,1385.08 74.5,1361C 29.5971,1330.7 4.59708,1288.54 -0.5,1234.5 Z M 421.5,1026.5 C 436.167,1026.5 450.833,1026.5 465.5,1026.5C 465.957,1082.19 465.457,1137.85 464,1193.5C 451.974,1264.87 412.474,1314.37 345.5,1342C 294.166,1361.94 243.166,1361.28 192.5,1340C 134.784,1310.37 104.784,1262.87 102.5,1197.5C 102.528,1152.86 119.861,1116.69 154.5,1089C 187.085,1066.05 223.085,1050.72 262.5,1043C 315.15,1032.72 368.15,1027.22 421.5,1026.5 Z"/></g>
<g><path style="opacity:0.989" fill="#fe9ac3" d="M 1680.5,733.5 C 1754.19,731.242 1806.69,763.242 1838,829.5C 1841.23,837.863 1844.07,846.363 1846.5,855C 1832.2,898.896 1817.7,942.729 1803,986.5C 1798.33,987.833 1793.67,987.833 1789,986.5C 1783.67,939.86 1770.67,895.527 1750,853.5C 1735.49,825.989 1714.16,805.655 1686,792.5C 1626.79,775.776 1581.46,793.776 1550,846.5C 1530.76,883.108 1520.1,922.108 1518,963.5C 1516.38,1080.16 1516.05,1196.82 1517,1313.5C 1520.49,1351.49 1541.32,1369.82 1579.5,1368.5C 1579.5,1373.17 1579.5,1377.83 1579.5,1382.5C 1503.17,1382.5 1426.83,1382.5 1350.5,1382.5C 1350.5,1377.83 1350.5,1373.17 1350.5,1368.5C 1372.47,1370.8 1390.3,1363.47 1404,1346.5C 1407.64,1340.6 1410.3,1334.26 1412,1327.5C 1413.16,1239.7 1413.66,1151.87 1413.5,1064C 1413.66,976.132 1413.16,888.298 1412,800.5C 1407.1,781.937 1395.6,769.437 1377.5,763C 1368.65,760.702 1359.65,759.535 1350.5,759.5C 1350.5,755.167 1350.5,750.833 1350.5,746.5C 1405.83,746.5 1461.17,746.5 1516.5,746.5C 1516.33,795.168 1516.5,843.834 1517,892.5C 1529.23,847.515 1552.06,809.015 1585.5,777C 1612.7,752.735 1644.36,738.235 1680.5,733.5 Z"/></g>
</svg>
